<svg width="100%" viewBox="0 0 1200 220" xmlns="http://www.w3.org/2000/svg" role="img">
<title>Anshu Sharma — Aspiring Cloud and DevOps Engineer</title>
<defs>
<linearGradient id="bg" x1="0%" y1="0%" x2="100%" y2="100%">
<stop offset="0%" stop-color="#0d1b2a"/>
<stop offset="50%" stop-color="#12212e"/>
<stop offset="100%" stop-color="#0d1b2a"/>
</linearGradient>
<linearGradient id="wave" x1="0%" y1="0%" x2="100%" y2="0%">
<stop offset="0%" stop-color="#F7971E"/>
<stop offset="100%" stop-color="#844FBA"/>
</linearGradient>
</defs>
<rect x="0" y="0" width="1200" height="220" fill="url(#bg)"/>
<path d="M0,170 C150,140 300,200 450,175 C600,150 750,190 900,165 C1050,140 1150,180 1200,165 L1200,220 L0,220 Z" fill="url(#wave)" opacity="0.9"/>
<path d="M0,185 C150,160 300,210 450,190 C600,170 750,205 900,185 C1050,165 1150,195 1200,185 L1200,220 L0,220 Z" fill="#0d1b2a" opacity="0.6"/>
<text x="600" y="98" text-anchor="middle" font-family="'Fira Code', monospace" font-size="52" font-weight="700" fill="#ffffff">Anshu Sharma</text>
<text x="600" y="135" text-anchor="middle" font-family="'Fira Code', monospace" font-size="20" fill="#F7971E">Aspiring Cloud &amp; DevOps Engineer</text>
</svg>
